<?xml version="1.0" encoding="UTF-8" standalone="no"?>
<svg width="60px" height="60px" viewBox="0 0 60 60" version="1.1" xmlns="http://www.w3.org/2000/svg" xmlns:xlink="http://www.w3.org/1999/xlink" xmlns:sketch="http://www.bohemiancoding.com/sketch/ns">
    <!-- Generator: Sketch 3.3.2 (12043) - http://www.bohemiancoding.com/sketch -->
    <title>Oval 200 Copy 2</title>
    <desc>Created with Sketch.</desc>
    <defs></defs>
    <g id="desktop" stroke="none" stroke-width="1" fill="none" fill-rule="evenodd" sketch:type="MSPage">
        <g id="contact-form" sketch:type="MSLayerGroup" transform="translate(-801.000000, -140.003771)"></g>
        <path d="M0.0120762048,30.8595221 C0.00404332423,30.573995 0,30.2874697 0,30 C0,17.2300108 7.97876342,6.32356172 19.2230612,1.99388173 L19.2230612,1.99388173 L23.8979596,14.8380595 C17.8552529,17.3196393 13.6,23.2628859 13.6,30.2 C13.6,30.4022468 13.6036169,30.6036488 13.6107894,30.804145 L0.0120762048,30.8595221 Z M0.546596623,35.7299993 C2.90758502,47.9374809 12.6693508,57.5063875 24.9764162,59.5812415 L24.9764162,59.5812415 L27.2223092,46.5336723 C20.5072864,45.3174952 15.1984312,40.0620466 13.9032741,33.3748567 L0.546596623,35.7299993 Z M24.197003,0.560809091 C26.0744888,0.192839573 28.0147244,0 30,0 C32.1527885,0 34.2526155,0.226755208 36.2768996,0.657684214 L33.5292752,13.9339457 C32.4536754,13.7149684 31.3402639,13.6 30.2,13.6 C28.9711723,13.6 27.7735301,13.733521 26.62079,13.9868465 L24.197003,0.560809091 L24.197003,0.560809091 Z M34.7551021,59.6252503 C43.4081035,58.2472421 50.8276615,53.1693096 55.3411895,46.0640397 L55.3411895,46.0640397 L44.180894,39.1533455 C41.6252405,43.1358024 37.4145416,45.9547521 32.5197974,46.6391946 L34.7551021,59.6252503 L34.7551021,59.6252503 Z M59.1946133,36.9341774 C59.7212802,34.7083987 60,32.3867486 60,30 C60,23.2559014 57.7746294,17.0315659 54.0181426,12.0212481 L54.0181426,12.0212481 L43.3795855,20.1061082 C45.5249348,22.9030772 46.8,26.4026349 46.8,30.2 C46.8,31.5592049 46.6366431,32.8802557 46.3284914,34.1445903 L59.1946133,36.9341774 L59.1946133,36.9341774 Z" id="Oval-200-Copy-2" fill="#161A1B" sketch:type="MSShapeGroup"></path>
    </g>
</svg>